<?xml version="1.0" encoding="utf-8"?>
<!-- Generator: Adobe Illustrator 22.1.0, SVG Export Plug-In . SVG Version: 6.00 Build 0)  -->
<svg version="1.1" xmlns="http://www.w3.org/2000/svg" xmlns:xlink="http://www.w3.org/1999/xlink" x="0px" y="0px"
	 viewBox="0 0 450 320" style="enable-background:new 0 0 450 320;" xml:space="preserve">
<style type="text/css">
	.st0{fill:#DEECF1;}
	.st1{fill:#593446;}
	.st2{fill:#081832;}
	.st3{fill:#D1DBEA;}
	.st4{fill:#202A4B;}
	.st5{fill:#C2866E;}
	.st6{fill:#194866;}
	.st7{fill:#A42534;}
	.st8{fill:#CE153F;}
	.st9{fill:#E9D6B8;}
	.st10{fill:#F4901E;}
	.st11{fill:#FFC400;}
	.st12{fill:#389B32;}
	.st13{fill:#006E3C;}
	.st14{fill:#B0BFDE;}
	.st15{fill:#AF7764;}
	.st16{fill:#163F59;}
	.st17{fill:#FF9D45;}
</style>
<g id="Layer_2">
	<ellipse class="st0" cx="225" cy="282.5" rx="213" ry="31.4"/>
	<g>
		<g>
			<polygon class="st1" points="359,275.3 354.9,277.1 351.1,276 348.9,264.2 356.2,264 			"/>
			<polygon class="st1" points="390.3,272.3 391.6,280.4 382.4,281.5 381.6,270.5 			"/>
			<path class="st2" d="M358.7,280.9l-6.3,0.1l0-1.9l-2.7,2l-15.8,0.3c0,0,0.2-2.6,10.8-3.2c2.7-0.2,4.5-3.9,4.5-3.9
				s1.3-1.3,3.4,1.6c0.5,0.7,6.2-0.8,6.2-0.8S359.6,278.8,358.7,280.9z"/>
			<path class="st2" d="M391.6,285.7l-6.3,0.3l-0.1-1.9l-2.7,2l-15.8,0.7c0,0,0.2-2.6,10.8-3.5c2.7-0.2,4.5-4.1,4.5-4.1
				s1.3-1.3,3.5,1.5c0.6,0.7,6.2-1,6.2-1S392.5,283.5,391.6,285.7z"/>
			<path class="st3" d="M386.8,119.1c0,0-8.6-3.4-18.7-5.7c-9.4-2.2-19.3-3.1-21-2.5c-3.6,1.3-3.5,19.9-2,35.4
				c1,9.8,0.3,17.9,0.3,17.9s28.9,15.7,31.1,15.5c2.2-0.2,7.8-6,7.3-10.7c-0.5-4.7,2.8-33.2,6.5-37.4
				C394,127.2,392.3,120.2,386.8,119.1z"/>
			<path class="st4" d="M350.2,272.1l9.5,0.3l-2.3-104.3l-17-5.2C340.4,162.9,340.4,229.8,350.2,272.1z"/>
			<polygon class="st4" points="376.3,168.2 380.5,221.9 394.2,277.5 380.6,277.8 350.2,166.4 363.3,168.3 			"/>
			<path class="st4" d="M365.9,170.1c0,0-3.6-1.2-4.9-1.5c-7.9-1.9-17.9-9.7-17.9-9.7s-0.8,6.9-1.8,17.6l21.2,15.8L365.9,170.1z"/>
			<g>
				<path class="st5" d="M377.8,99.1c0,0-3.3,6.6-0.4,13.5c2.9,6.9-16.6,0.4-16.6,0.4s6.6-5.6-3.2-10.8
					C352.4,99.4,376.4,96.2,377.8,99.1z"/>
				<path class="st4" d="M353.2,164.8c-1.2-0.5-2.1-1.5-3.3-1.9c-2.1-24.6,7.1-34.8,16.4-51.3c0.9,0.4,1.8,0.9,2.7,1.3
					C361.2,127.3,351.6,140.1,353.2,164.8z"/>
				<path class="st5" d="M377.1,92.7c-0.2-5-7.8-12.9-10.3-11.3c-1.1,0.7-2,1.5-2.7,2.3c-0.7,1.1-1.4,2.1-2.1,3.1
					c-0.2,0.2-0.3,0.5-0.4,0.7c0,0,0,0,0,0.1l-5.9,12.9c-0.2,0.4,0,0.9,0.4,1l8.4,3.9c0.4,0.2,6.9-1.7,8.1-2.3
					c1.4-0.6,2.7-0.8,3.6-1.5C377.2,100.8,377.3,97.2,377.1,92.7z"/>
				<polygon class="st5" points="366.7,85.8 367.3,92.5 368,99.2 361.8,96.4 356.6,92.4 361.2,89.7 				"/>
				<path class="st6" d="M376.7,102.4l4.9-10.1c0,0-1.2-4.4-6.7-8.1c-5.6-3.7-8.1-3.7-8.1-3.7l-3.3,0.4l0.1,3.5l7.2,2.6l-3.3,3.9
					l-0.8,5.6l1.6,0.9l0,0.2c0,0,0.9-3,3.1-3.6c2.2-0.6,2.9,1.8,1.4,3.3c-1.5,1.5-1.5,2.2-1.5,2.2l1.5,2.9L376.7,102.4z"/>
				<polygon class="st4" points="367.6,110.5 366.2,113.5 361.8,116.5 359.6,111.6 362.8,108 				"/>
				<polygon class="st4" points="378.2,112.2 378.7,116.3 370,118.9 366.2,113.5 367.6,110.5 				"/>
				<path class="st7" d="M391.7,119.4l-13.1-4.2c0,0-14.7,27.3-9,40.4c5.7,13.1,4.1,18.2,2.8,25.5c-1.3,7.3,0.8,15.2,0.8,15.2
					l16.8-15.9c0,0,2.7-4.8,1.2-8.8c-1.5-4-6.2-13.4-5-25C387.4,135,389.8,121.5,391.7,119.4z"/>
				<path class="st7" d="M343,185c0,0,4.5-43.2,5.9-49.5c1.3-5.9,10.7-23.8,10.7-23.8l-13.2-2c0,0-8.4,20.8-7.4,26.4
					c0.3,1.7,0.8,14.3,1.6,19.4c0.4,2.8-5.8,19.2-3.8,21.4C339.2,179.2,343.8,185.2,343,185z"/>
				<path class="st8" d="M347.1,141.8c0,0,1.3-4.8,4.4-12.1c3.1-7.3,8.1-18.1,8.1-18.1l-8.3-0.8l-4.3,7.9l2.9,2.2l-4.6,4.8
					C345.3,125.7,345.7,134.6,347.1,141.8z"/>
				<path class="st8" d="M386.6,118l-4.1,10.7l-5.6,3.9l2.1,5.7c0,0-5,5.6-6,25.5c0,0.3-8.2-16.8-0.1-35.3c3.1-7,5.6-13.4,5.6-13.4
					L386.6,118z"/>
			</g>
			<g>
				<path class="st9" d="M313.1,101l-3-6.4l-4-1.6l-2.5,4.5l-1.2,3.6l1.2,2.5c0,0,4.9,2.7,7.9,1.7C314.4,104.2,313.1,101,313.1,101z
					"/>
				<path class="st8" d="M354.4,114.4c0,0-9.9,19-16.4,18.2c-6.4-0.7-3.3-4.7-2-8.4c1.4-3.7,8.2-12.5,9-13.7
					C346.1,109,348.8,110.4,354.4,114.4z"/>
				<path class="st8" d="M338.7,124.6c0,0,2.6,5.3-0.3,8.3c-2.9,3-10.3-1.6-17.4-10.4c-7.2-8.7-12.2-16.9-12.2-16.9l4.2-5
					C313,100.5,338.6,121.3,338.7,124.6z"/>
			</g>
			<g>
				<g>
					<path class="st10" d="M332.7,107.7c7.1,16.8,0.6,35.7-14.5,42.2c-15.1,6.5-33.1-1.7-40.1-18.5c-7.1-16.8-0.6-35.7,14.5-42.2
						C307.7,82.7,325.6,91,332.7,107.7z"/>
					<path class="st11" d="M334.6,105.3c7.1,16.8,0.6,35.7-14.5,42.2C305,154,287,145.7,280,129c-7.1-16.8-0.6-35.7,14.5-42.2
						C309.6,80.2,327.5,88.5,334.6,105.3z"/>
					<path class="st10" d="M289.5,126.7c-5.4-12.8-0.4-27.2,11.1-32.2c4.8-2.1,10.1-2.2,14.9-0.7c-5.2-2-11-2.1-16.3,0.2
						c-11.5,5-16.5,19.4-11.1,32.2c3.1,7.4,9.1,12.7,15.7,14.8C297.7,138.6,292.4,133.6,289.5,126.7z"/>
				</g>
			</g>
			<g>
				<path class="st5" d="M324,146.9c0,0-1.2-0.6-2.8-2.1c-1-0.9-2.1,0.4-2.1,0.4l-1.6,0.7l0.1-2.5l0.8-6.2l4.6-3.4
					c0,0,1.3,0.2,1.8,0.9c0.6,0.7,2,5.6,2,5.6L324,146.9z"/>
				<path class="st8" d="M393.6,121.2c0.3,0.6,2,10.7-4.7,18.5c-2.3,2.7-21.8,17.2-28.5,17.8c-6.7,0.6-6.5-4.7-5.2-7.9
					c1.3-3.2,6.1-5.7,12.6-11.8c6.8-6.3,11.1-11.1,14.1-13.5C386.2,121.1,390.9,116.2,393.6,121.2z"/>
				<path class="st8" d="M364.3,154.2c0,0-0.2,3.4-5.2,3.4c-1.4,0-4.1-0.7-6.1-1.2c-9.4-2.6-30-8.9-30-8.9l4.4-8.5
					c0,0,19.7,3.8,24,4.8C355.8,144.8,365.4,144.3,364.3,154.2z"/>
			</g>
		</g>
		<g>
			<g>
				<g>
					<g>
						<path class="st12" d="M231.6,268.4L231.6,268.4c-0.6,0-1-1.2-1-2.6V115.6c0-1.4,0.5-2.6,1-2.6l0,0c0.6,0,1,1.2,1,2.6v150.3
							C232.7,267.3,232.2,268.4,231.6,268.4L231.6,268.4z"/>
					</g>
					<g>
						<g>
							<path class="st12" d="M231.6,236.5L231.6,236.5c-0.4-0.4-0.4-1.1,0-1.5l6.8-6.8c0.4-0.4,1.1-0.4,1.5,0l0,0
								c0.4,0.4,0.4,1.1,0,1.5l-6.8,6.8C232.7,236.9,232.1,236.9,231.6,236.5L231.6,236.5z"/>
						</g>
						<path class="st13" d="M257.9,210.2c-5.7-2.7-12.7-1.7-17.4,3c-4.7,4.7-5.7,11.7-3,17.4c5.7,2.7,12.7,1.7,17.4-3
							C259.6,222.9,260.6,215.9,257.9,210.2z"/>
						<path class="st12" d="M237.5,230.6c5.7,2.7,12.7,1.7,17.4-3c4.7-4.7,5.7-11.7,3-17.4"/>
					</g>
					<g>
						<g>
							<path class="st12" d="M231.5,236.5L231.5,236.5c0.4-0.4,0.4-1.1,0-1.5l-6.8-6.8c-0.4-0.4-1.1-0.4-1.5,0l0,0
								c-0.4,0.4-0.4,1.1,0,1.5l6.8,6.8C230.4,236.9,231.1,236.9,231.5,236.5L231.5,236.5z"/>
						</g>
						<path class="st13" d="M205.3,210.2c5.7-2.7,12.7-1.7,17.4,3c4.7,4.7,5.7,11.7,3,17.4c-5.7,2.7-12.7,1.7-17.4-3
							C203.6,222.9,202.6,215.9,205.3,210.2z"/>
						<path class="st12" d="M225.7,230.6c-5.7,2.7-12.7,1.7-17.4-3c-4.7-4.7-5.7-11.7-3-17.4"/>
					</g>
					<g>
						<g>
							<path class="st12" d="M231.6,209.6L231.6,209.6c-0.4-0.4-0.4-1.1,0-1.5l6.8-6.8c0.4-0.4,1.1-0.4,1.5,0l0,0
								c0.4,0.4,0.4,1.1,0,1.5l-6.8,6.8C232.7,210,232.1,210,231.6,209.6L231.6,209.6z"/>
						</g>
						<path class="st13" d="M257.9,183.4c-5.7-2.7-12.7-1.7-17.4,3c-4.7,4.7-5.7,11.7-3,17.4c5.7,2.7,12.7,1.7,17.4-3
							C259.6,196.1,260.6,189.1,257.9,183.4z"/>
						<path class="st12" d="M237.5,203.8c5.7,2.7,12.7,1.7,17.4-3c4.7-4.7,5.7-11.7,3-17.4"/>
					</g>
					<g>
						<g>
							<path class="st12" d="M231.5,209.6L231.5,209.6c0.4-0.4,0.4-1.1,0-1.5l-6.8-6.8c-0.4-0.4-1.1-0.4-1.5,0l0,0
								c-0.4,0.4-0.4,1.1,0,1.5l6.8,6.8C230.4,210,231.1,210,231.5,209.6L231.5,209.6z"/>
						</g>
						<path class="st13" d="M205.3,183.4c5.7-2.7,12.7-1.7,17.4,3c4.7,4.7,5.7,11.7,3,17.4c-5.7,2.7-12.7,1.7-17.4-3
							C203.6,196.1,202.6,189.1,205.3,183.4z"/>
						<path class="st12" d="M225.7,203.8c-5.7,2.7-12.7,1.7-17.4-3c-4.7-4.7-5.7-11.7-3-17.4"/>
					</g>
					<g>
						<g>
							<path class="st12" d="M231.6,182.8L231.6,182.8c-0.4-0.4-0.4-1.1,0-1.5l6.8-6.8c0.4-0.4,1.1-0.4,1.5,0l0,0
								c0.4,0.4,0.4,1.1,0,1.5l-6.8,6.8C232.7,183.2,232.1,183.2,231.6,182.8L231.6,182.8z"/>
						</g>
						<path class="st13" d="M257.9,156.6c-5.7-2.7-12.7-1.7-17.4,3c-4.7,4.7-5.7,11.7-3,17.4c5.7,2.7,12.7,1.7,17.4-3
							C259.6,169.2,260.6,162.3,257.9,156.6z"/>
						<path class="st12" d="M237.5,177c5.7,2.7,12.7,1.7,17.4-3c4.7-4.7,5.7-11.7,3-17.4"/>
					</g>
					<g>
						<g>
							<path class="st12" d="M231.5,182.8L231.5,182.8c0.4-0.4,0.4-1.1,0-1.5l-6.8-6.8c-0.4-0.4-1.1-0.4-1.5,0l0,0
								c-0.4,0.4-0.4,1.1,0,1.5l6.8,6.8C230.4,183.2,231.1,183.2,231.5,182.8L231.5,182.8z"/>
						</g>
						<path class="st13" d="M205.3,156.6c5.7-2.7,12.7-1.7,17.4,3c4.7,4.7,5.7,11.7,3,17.4c-5.7,2.7-12.7,1.7-17.4-3
							C203.6,169.2,202.6,162.3,205.3,156.6z"/>
						<path class="st12" d="M225.7,177c-5.7,2.7-12.7,1.7-17.4-3c-4.7-4.7-5.7-11.7-3-17.4"/>
					</g>
					<g>
						<g>
							<path class="st12" d="M231.6,156L231.6,156c-0.4-0.4-0.4-1.1,0-1.5l6.8-6.8c0.4-0.4,1.1-0.4,1.5,0l0,0c0.4,0.4,0.4,1.1,0,1.5
								l-6.8,6.8C232.7,156.4,232.1,156.4,231.6,156L231.6,156z"/>
						</g>
						<path class="st13" d="M257.9,129.7c-5.7-2.7-12.7-1.7-17.4,3c-4.7,4.7-5.7,11.7-3,17.4c5.7,2.7,12.7,1.7,17.4-3
							C259.6,142.4,260.6,135.4,257.9,129.7z"/>
						<path class="st12" d="M237.5,150.2c5.7,2.7,12.7,1.7,17.4-3c4.7-4.7,5.7-11.7,3-17.4"/>
					</g>
					<g>
						<g>
							<path class="st12" d="M231.5,156L231.5,156c0.4-0.4,0.4-1.1,0-1.5l-6.8-6.8c-0.4-0.4-1.1-0.4-1.5,0l0,0
								c-0.4,0.4-0.4,1.1,0,1.5l6.8,6.8C230.4,156.4,231.1,156.4,231.5,156L231.5,156z"/>
						</g>
						<path class="st13" d="M205.3,129.7c5.7-2.7,12.7-1.7,17.4,3c4.7,4.7,5.7,11.7,3,17.4c-5.7,2.7-12.7,1.7-17.4-3
							C203.6,142.4,202.6,135.4,205.3,129.7z"/>
						<path class="st12" d="M225.7,150.2c-5.7,2.7-12.7,1.7-17.4-3c-4.7-4.7-5.7-11.7-3-17.4"/>
					</g>
				</g>
				<path class="st8" d="M249.9,291.2c-0.1,1-0.9,1.8-1.8,1.8c-10.9,0-21.9,0-32.8,0c-0.9,0-1.7-0.8-1.8-1.8c-1-8-2.1-16-3.1-24
					c-0.1-1,0.6-1.8,1.7-1.8c13.1,0,26.2,0,39.3,0c1.1,0,1.8,0.8,1.7,1.8C251.9,275.2,250.9,283.2,249.9,291.2z"/>
				<path class="st7" d="M251.3,265.5c-13.1,0-26.2,0-39.3,0c-1.1,0-1.8,0.8-1.7,1.8c0.2,1.6,0.4,3.3,0.6,4.9h41.5
					c0.2-1.6,0.4-3.3,0.6-4.9C253.1,266.2,252.3,265.5,251.3,265.5z"/>
				<path class="st8" d="M255.1,265.5c0,1.2-0.9,2.1-2.1,2.1h-42.9c-1.2,0-2.1-0.9-2.1-2.1v-9.1c0-1.2,0.9-2.1,2.1-2.1H253
					c1.2,0,2.1,0.9,2.1,2.1V265.5z"/>
			</g>
			<g>
				<path class="st10" d="M269.5,85c1,19.7-14.2,36.5-33.9,37.5c-19.7,1-36.5-14.2-37.5-33.9c-1-19.7,14.2-36.5,33.9-37.5
					C251.7,50.1,268.5,65.3,269.5,85z"/>
				<path class="st11" d="M267.1,84.7c1,19.7-14.2,36.5-33.9,37.5c-19.7,1-36.5-14.2-37.5-33.9c-1-19.7,14.2-36.5,33.9-37.5
					C249.3,49.8,266.1,65,267.1,84.7z"/>
				<path class="st10" d="M205.2,88.8c-0.8-15,10.8-27.9,25.9-28.6c6.3-0.3,12.2,1.6,17,4.9c-5-4-11.5-6.3-18.4-6
					c-15,0.8-26.6,13.6-25.9,28.6c0.4,8.7,4.9,16.3,11.6,21C209.5,104,205.6,96.9,205.2,88.8z"/>
			</g>
		</g>
		<g>
			<g>
				<g>
					<g>
						<path class="st9" d="M166.2,64.7l-2.5-3.4c0,0-1.1-1.7-3-3.1c-1.9-1.4-3.9-0.8-5.7,0.7c-1.7,1.6-2,2.8-2,2.8s1,2.8,3.5,2.6
							c2.5-0.2,7.7,2.7,8.1,1.7C165.1,65.4,166.2,64.7,166.2,64.7z"/>
						<polygon class="st9" points="153.4,63.1 150.2,59.7 147.4,56.4 148.3,56.1 150.6,58.1 155.7,59.5 154.9,60.7 						"/>
						<polygon class="st9" points="152,57.1 150.4,53.6 151.2,53.1 153.4,56.2 156.7,58.7 154.9,60.7 						"/>
						<polygon class="st9" points="152.8,52.5 153.9,55.4 154.3,57.4 156,58.9 157.9,57.7 156,56.2 154,52.7 						"/>
						<polygon class="st9" points="155.9,52.1 156.9,57.5 158.1,58.5 159.5,57.8 158.1,55.5 156.7,52.5 						"/>
					</g>
					<path class="st9" d="M165.9,67.9c-1.6-1.9-4.3-1.7-4.3-1.7s-6.6,0.3-7.6-0.7c-1-1-3.8-1.8-3.8-1.8s-1-0.9,1.7-1.1
						c1.7-0.1,3.3,0.3,3.3,0.3s3.7-1.5,4.8-1.3c2.4,0.4,6.2,5,6.2,5S166.1,68.2,165.9,67.9z"/>
					<g>
						<path class="st3" d="M131.1,110.5c0,0,1.5,7.5,23.9,3.2c22.4-4.3,20.6-9.2,20.6-9.2l0.4-5.7l-11.7-12.5l-6.3,5.2l0.3,1.2
							c0,0-0.9,1.4-2.4,1.4c-1.5,0-8.1,2-20.9,2.6C129.1,97,130.8,109.1,131.1,110.5z"/>
						<g>
							<path class="st14" d="M135,96.7c0.3,0,0.5,0,0.8,0c-1,3.5-1,7.8-0.9,8.6c0,0,0.5,7.6,23.3,6c4.1-0.3,7.4-0.7,10.1-1.1
								c-3,1.1-7.2,2.3-13.2,3.5c-22.4,4.3-23.9-3.2-23.9-3.2C130.8,109.1,129.1,97,135,96.7z"/>
						</g>
						<path class="st5" d="M164.3,87.8c0,0,9.8-13.2-3.3-23.8c-3.9-3.2,0.9-1.4,5.4,0.6c4.5,2,13.8,12.1,12.9,22.1
							c-0.9,10.1-2.1,13.8-6,15.2C169.4,103.3,164.3,87.8,164.3,87.8z"/>
						<path class="st14" d="M159,99.5l-1.8-3.9l-0.6-1.6c1.2-0.3,1.9-1.4,1.9-1.4l0.8,3.1l1.6,3.5l3.7,3.9L159,99.5z"/>
						<path class="st3" d="M138.6,157l-26.6-0.6l-11.1-37c0,0-7.2-22.4,6.6-22.7c13.8-0.3,29.6-0.3,29.6-0.3S146.4,104.5,138.6,157z
							"/>
						<path class="st5" d="M114.4,68.6c0,0,14,13,12.3,17.5c-0.1,0.2-2.3,2.3-2.5,4.5c-0.2,2,0.7,3.2,0.7,4c0,0.3,0.7,2,0.8,2.5
							c0.3,2.3-0.9,4.2-1.8,4c-1.2-0.3-6.3-2.3-7.1-2.8c-0.6-0.3-1.2-0.4-1.3-1.3c-0.3-2-1.4-5.5-2.4-6.5c-3-2.9-11.5-5.7-9.1-14
							C104.5,74,113.2,68.1,114.4,68.6z"/>
						<path class="st4" d="M123.8,101.6c0,0,12.1,20.8,8.6,43.8c-0.3,1.8-2.4,3.1-2.4,3.1l-3-2.6
							C127.1,145.9,127.3,119.9,123.8,101.6z"/>
						<polygon class="st14" points="123.4,101.1 122.7,105.7 114.3,98.7 115.3,96.9 						"/>
						<polygon class="st14" points="125.9,98.1 125.6,96.6 127.2,99.2 127.3,104.1 123.9,101.2 						"/>
						<path class="st15" d="M126.5,85.9c0,0-0.7,0.1-1.9,0.3c-0.4,0.1-1.6,0.2-2.2,0.5c-2.5,1.1-2.2,1.3-3.9,1.6
							c-1.8,0.4-5.9,0.6-5.9,0.6s2.1,0.8,2.9,1.1c1.5,0.6,2.8,0.4,3.9,0c4.5-1.5,4.5-1.1,5-1.5C124.3,88.6,124.5,88.2,126.5,85.9z"
							/>
						<path class="st5" d="M119.4,74.6c0.2,0.3,3.2,1.7,3.7,2c0.5,0.3,1.3,0.6,1.3,0.8c0.1,0.2,0,1-0.1,1.4
							c-0.1,0.3-0.2,1.6-1.3,0.7C121.9,78.5,119.4,74.6,119.4,74.6z"/>
						<path class="st16" d="M103,76c0.8-4.4,6.6-8.5,13.3-8.3c0,0,0.6,1-0.1,2.8c0,0-4.5-0.9-7.6,2.6c-3.2,3.6,0.8,3.2,0.7,4.8
							c-0.1,1.4-0.2,2.6-0.2,2.6l1.2,2.5l-0.9,0.9c0,0-2.4-1.7-2.3-0.7c0.1,1.3,1.8,2.7,2,2.9c0.2,0.2,0.6,0.6,0.5,0.7
							c0,0.1,1.3,1.1,2.9,3.5c-0.4,0.4-1.5,0.3-3-0.8C106.4,87,102,81.4,103,76z"/>
						<path class="st5" d="M107.3,82.9c-0.8,0.7-1,1.9-0.3,2.8c0.7,0.8,1.9,1,2.8,0.3"/>
						<path class="st15" d="M121.7,79.7c0,0,1.3-1.9,1.6-2c0.2-0.1,0.7-0.4,0.9-0.3c0.2,0.2,0.3,0.8-0.1,2.1
							C123.9,79.8,123.6,79.2,121.7,79.7z"/>
						<rect x="131.1" y="271.4" class="st1" width="6.9" height="10.4"/>
						<rect x="82.4" y="271.4" class="st1" width="5.5" height="10.4"/>
						<path class="st2" d="M131.4,284.9h5v-1.5l2.2,1.5h12.6c0,0-0.2-2.1-8.7-2.4c-2.2-0.1-3.7-3-3.7-3s-1.1-1-2.7,1.3
							c-0.4,0.6-5-0.5-5-0.5S130.6,283.3,131.4,284.9z"/>
						<path class="st4" d="M137.7,156.2l0.6,56.6l-12,6.6c0,0-7.2-13.5-8.1-30.7C117.4,171.4,137.7,156.2,137.7,156.2z"/>
						<path class="st4" d="M137.7,156.2l-26.3,62l-4.8,6.6l-18.2,51.5l-6.9-2c0,0-2.5-28.3,4.7-40.4c7.2-12.1,10.8-18.7,10.8-18.7
							l15.8-60.9L137.7,156.2z"/>
						<path class="st4" d="M130.5,277.3c-2.2-11.1-6.9-30.5-7.1-37.6c-0.3-13.2,1.8-22.4,1.8-22.4l13.2-4.6l0.1,64.6H130.5z"/>
						<path class="st2" d="M88.7,286.8h-3.4l-1.1-1.1l-0.5-2.6l-1.1,1.1l-3.5-3.5c0.6-1.7,3.1-3.5,3.1-3.5s2.4,4,3.2,3.9
							c2.8-0.5,2.8,1,2.8,1S87.2,285.2,88.7,286.8z"/>
						<path class="st2" d="M85.2,283c0.7,0.7,1.6,1.5,2.6,1.5c8.5,0.3,8.7,2.4,8.7,2.4H85.2V283z"/>
						<g>
							<path class="st10" d="M123.6,135c6.9,16.5,0.6,35-14.2,41.4c-14.8,6.4-32.5-1.7-39.4-18.2c-6.9-16.5-0.6-35,14.2-41.4
								C99,110.4,116.7,118.6,123.6,135z"/>
							<path class="st11" d="M125.5,132.6c6.9,16.5,0.6,35-14.2,41.4c-14.8,6.4-32.5-1.7-39.4-18.2c-7-16.5-0.6-35,14.2-41.4
								C100.9,108,118.5,116.2,125.5,132.6z"/>
							<path class="st10" d="M81.2,153.7c-5.3-12.6-0.4-26.7,10.9-31.6c4.8-2.1,9.9-2.2,14.6-0.6c-5.1-2-10.8-2.1-16,0.2
								c-11.3,4.9-16.2,19.1-10.9,31.6c3.1,7.3,8.9,12.4,15.5,14.5C89.2,165.4,84,160.5,81.2,153.7z"/>
						</g>
						<path class="st5" d="M93.2,175.8c0.7,1.3,5.3,2.7,5.3,2.7l3.3-3.7h-2.1l-1.5-3.4l-4.5,1.7C93.7,173.1,92.7,175,93.2,175.8z"/>
						<path class="st3" d="M102.7,118.3l-15.5,23.8l-2.1,0.3l0.6,2l-11.3-0.9l-2.5-9.8l21.8-32.2c0,0,6.8-6.2,17.9-4.6
							C119.8,98.2,103.9,116.3,102.7,118.3z"/>
						<path class="st5" d="M85.1,143.5l11.5,32.1c0,0-2.5,0.8-4-0.5c-4-3.5-10.9-13.1-13.3-18.3c-3.3-7.2-5.1-14.9-5.1-14.9
							L85.1,143.5z"/>
						<path class="st14" d="M75.4,137.3c0,0,7,3.3,10.6,5l-0.9,0.1l0.6,2l-3.9-0.3l-5.5-1.3l-0.3-2.3h1.7L75.4,137.3z"/>
					</g>
				</g>
			</g>
			<g>
				<path class="st10" d="M181,56.2c-13.3,11.9-31.7,13.2-41.3,3.1c-9.5-10.2-6.5-28,6.7-39.8c13.3-11.8,31.7-13.2,41.3-3.1
					C197.3,26.5,194.3,44.3,181,56.2z"/>
				<path class="st11" d="M179.2,52.8c-13.3,11.9-31.7,13.2-41.3,3.1c-9.5-10.2-6.5-28,6.7-39.9c13.3-11.9,31.7-13.2,41.3-3.1
					C195.5,23.1,192.4,40.9,179.2,52.8z"/>
				<path class="st10" d="M148.5,21.5c10.1-9.1,24.2-10.1,31.5-2.4c3.1,3.3,4.4,7.5,4.2,12.1c0.5-5.1-0.8-9.9-4.1-13.5
					c-7.3-7.8-21.4-6.7-31.5,2.3c-5.9,5.3-9.1,12-9.4,18.3C139.9,32.6,143,26.4,148.5,21.5z"/>
			</g>
		</g>
	</g>
</g>
<g id="Layer_3">
	<g>
		<path class="st17" d="M158.2,46.6c-1.2,0-2.5-0.4-3.5-1.1c-1.7-1.2-3.1-2.6-4.3-4.3c-1.7-2.5-1.4-5.8,0.7-7.9l0.8-0.8l0.8,0.8
			l-0.8,0.8c-1.8,1.8-2,4.5-0.6,6.6c1.1,1.6,2.4,2.9,4,4c2,1.4,4.8,1.2,6.6-0.6c1.6-1.6,2-4,0.9-6l-3.5-6.7
			c-1.3-2.4-0.8-5.3,1.1-7.3c2.1-2.1,5.5-2.4,7.9-0.7c1.7,1.2,3.1,2.6,4.3,4.3c1.7,2.5,1.4,5.8-0.7,7.9l-0.8,0.8l-0.8-0.8l0.8-0.8
			c1.8-1.8,2-4.5,0.6-6.6c-1.1-1.6-2.4-2.9-4-4c-2-1.4-4.8-1.2-6.6,0.6c-1.6,1.6-2,4-0.9,6l3.5,6.7c1.3,2.4,0.8,5.3-1.1,7.3
			C161.4,46,159.8,46.6,158.2,46.6z"/>
		
			<rect x="169.6" y="23.4" transform="matrix(0.7071 -0.7071 0.7071 0.7071 33.411 128.6113)" class="st17" width="4.7" height="1.1"/>
		
			<rect x="148.7" y="44.3" transform="matrix(0.7071 -0.7071 0.7071 0.7071 12.5272 119.961)" class="st17" width="4.7" height="1.1"/>
	</g>
	<g>
		<path class="st10" d="M157.6,46.1c-1.2,0-2.5-0.4-3.5-1.1c-1.7-1.2-3.1-2.6-4.3-4.3c-1.7-2.5-1.4-5.8,0.7-7.9l0.8-0.8l0.8,0.8
			l-0.8,0.8c-1.8,1.8-2,4.5-0.6,6.6c1.1,1.6,2.4,2.9,4,4c2,1.4,4.8,1.2,6.6-0.6c1.6-1.6,2-4,0.9-6l-3.5-6.7
			c-1.3-2.4-0.8-5.3,1.1-7.3c2.1-2.1,5.5-2.4,7.9-0.7c1.7,1.2,3.1,2.6,4.3,4.3c1.7,2.5,1.4,5.8-0.7,7.9l-0.8,0.8l-0.8-0.8l0.8-0.8
			c1.8-1.8,2-4.5,0.6-6.6c-1.1-1.6-2.4-2.9-4-4c-2-1.4-4.8-1.2-6.6,0.6c-1.6,1.6-2,4-0.9,6l3.5,6.7c1.3,2.4,0.8,5.3-1.1,7.3
			C160.8,45.5,159.2,46.1,157.6,46.1z"/>
		
			<rect x="169" y="22.9" transform="matrix(0.7071 -0.7071 0.7071 0.7071 33.6356 128.0691)" class="st10" width="4.7" height="1.1"/>
		
			<rect x="148.2" y="43.8" transform="matrix(0.7071 -0.7071 0.7071 0.7071 12.7518 119.4187)" class="st10" width="4.7" height="1.1"/>
	</g>
	<g>
		<path class="st17" d="M238.2,98.3c-0.9,0.8-2,1.4-3.3,1.6c-2,0.3-4,0.3-6-0.2c-2.9-0.6-5-3.3-4.9-6.3l0-1.1l1.1,0l0,1.1
			c-0.1,2.5,1.7,4.7,4.1,5.2c1.9,0.4,3.7,0.4,5.6,0.1c2.4-0.4,4.3-2.5,4.3-5c0.1-2.3-1.3-4.3-3.5-5l-7.1-2.5c-2.6-0.9-4.3-3.3-4.2-6
			c0.1-3,2.3-5.5,5.2-6c2-0.3,4-0.3,6,0.2c2.9,0.6,5,3.3,4.9,6.3l0,1.1l-1.1,0l0-1.1c0.1-2.5-1.7-4.7-4.1-5.2
			c-1.9-0.4-3.7-0.4-5.6-0.1c-2.4,0.4-4.3,2.5-4.3,5c-0.1,2.3,1.3,4.3,3.5,5l7.1,2.5c2.6,0.9,4.3,3.3,4.2,6
			C240.1,95.7,239.4,97.2,238.2,98.3z"/>
		
			<rect x="230.2" y="71.9" transform="matrix(2.522855e-02 -0.9997 0.9997 2.522855e-02 154.3145 303.0813)" class="st17" width="4.7" height="1.1"/>
		
			<rect x="229.5" y="101.4" transform="matrix(2.522855e-02 -0.9997 0.9997 2.522855e-02 124.0727 331.1164)" class="st17" width="4.7" height="1.1"/>
	</g>
	<g>
		<path class="st10" d="M237.4,98.3c-0.9,0.8-2,1.4-3.3,1.6c-2,0.3-4,0.3-6-0.2c-2.9-0.6-5-3.3-4.9-6.3l0-1.1l1.1,0l0,1.1
			c-0.1,2.5,1.7,4.7,4.1,5.2c1.9,0.4,3.7,0.4,5.6,0.1c2.4-0.4,4.3-2.5,4.3-5c0.1-2.3-1.3-4.3-3.5-5l-7.1-2.5c-2.6-0.9-4.3-3.3-4.2-6
			c0.1-3,2.3-5.5,5.2-6c2-0.3,4-0.3,6,0.2c2.9,0.6,5,3.3,4.9,6.3l0,1.1l-1.1,0l0-1.1c0.1-2.5-1.7-4.7-4.1-5.2
			c-1.9-0.4-3.7-0.4-5.6-0.1c-2.4,0.4-4.3,2.5-4.3,5c-0.1,2.3,1.3,4.3,3.5,5l7.1,2.5c2.6,0.9,4.3,3.3,4.2,6
			C239.3,95.6,238.6,97.2,237.4,98.3z"/>
		
			<rect x="229.4" y="71.9" transform="matrix(2.522855e-02 -0.9997 0.9997 2.522855e-02 153.5866 302.2961)" class="st10" width="4.7" height="1.1"/>
		
			<rect x="228.7" y="101.4" transform="matrix(2.522855e-02 -0.9997 0.9997 2.522855e-02 123.3448 330.3312)" class="st10" width="4.7" height="1.1"/>
	</g>
	<g>
		<path class="st17" d="M106.2,157.5c-0.9,0.8-2,1.4-3.3,1.6c-2,0.3-4,0.3-6-0.2c-2.9-0.6-5-3.3-4.9-6.3l0-1.1l1.1,0l0,1.1
			c-0.1,2.5,1.7,4.7,4.1,5.2c1.9,0.4,3.7,0.4,5.6,0.1c2.4-0.4,4.3-2.5,4.3-5c0.1-2.3-1.3-4.3-3.5-5l-7.1-2.5c-2.6-0.9-4.3-3.3-4.2-6
			c0.1-3,2.3-5.5,5.2-6c2-0.3,4-0.3,6,0.2c2.9,0.6,5,3.3,4.9,6.3l0,1.1l-1.1,0l0-1.1c0.1-2.5-1.7-4.7-4.1-5.2
			c-1.9-0.4-3.7-0.4-5.6-0.1c-2.4,0.4-4.3,2.5-4.3,5c-0.1,2.3,1.3,4.3,3.5,5l7.1,2.5c2.6,0.9,4.3,3.3,4.2,6
			C108.1,154.8,107.3,156.4,106.2,157.5z"/>
		
			<rect x="98.2" y="131" transform="matrix(2.522855e-02 -0.9997 0.9997 2.522855e-02 -33.493 228.759)" class="st17" width="4.7" height="1.1"/>
		
			<rect x="97.4" y="160.5" transform="matrix(2.522855e-02 -0.9997 0.9997 2.522855e-02 -63.7347 256.7942)" class="st17" width="4.7" height="1.1"/>
	</g>
	<g>
		<path class="st10" d="M105.4,157.4c-0.9,0.8-2,1.4-3.3,1.6c-2,0.3-4,0.3-6-0.2c-2.9-0.6-5-3.3-4.9-6.3l0-1.1l1.1,0l0,1.1
			c-0.1,2.5,1.7,4.7,4.1,5.2c1.9,0.4,3.7,0.4,5.6,0.1c2.4-0.4,4.3-2.5,4.3-5c0.1-2.3-1.3-4.3-3.5-5l-7.1-2.5c-2.6-0.9-4.3-3.3-4.2-6
			c0.1-3,2.3-5.5,5.2-6c2-0.3,4-0.3,6,0.2c2.9,0.6,5,3.3,4.9,6.3l0,1.1l-1.1,0l0-1.1c0.1-2.5-1.7-4.7-4.1-5.2
			c-1.9-0.4-3.7-0.4-5.6-0.1c-2.4,0.4-4.3,2.5-4.3,5c-0.1,2.3,1.3,4.3,3.5,5l7.1,2.5c2.6,0.9,4.3,3.3,4.2,6
			C107.3,154.8,106.6,156.3,105.4,157.4z"/>
		
			<rect x="97.4" y="131" transform="matrix(2.522855e-02 -0.9997 0.9997 2.522855e-02 -34.2209 227.9738)" class="st10" width="4.7" height="1.1"/>
		
			<rect x="96.7" y="160.5" transform="matrix(2.522855e-02 -0.9997 0.9997 2.522855e-02 -64.4626 256.009)" class="st10" width="4.7" height="1.1"/>
	</g>
	<g>
		<path class="st17" d="M316.2,128.6c-0.9,0.8-2,1.4-3.3,1.6c-2,0.3-4,0.3-6-0.2c-2.9-0.6-5-3.3-4.9-6.3l0-1.1l1.1,0l0,1.1
			c-0.1,2.5,1.7,4.7,4.1,5.2c1.9,0.4,3.7,0.4,5.6,0.1c2.4-0.4,4.3-2.5,4.3-5c0.1-2.3-1.3-4.3-3.5-5l-7.1-2.5c-2.6-0.9-4.3-3.3-4.2-6
			c0.1-3,2.3-5.5,5.2-6c2-0.3,4-0.3,6,0.2c2.9,0.6,5,3.3,4.9,6.3l0,1.1l-1.1,0l0-1.1c0.1-2.5-1.7-4.7-4.1-5.2
			c-1.9-0.4-3.7-0.4-5.6-0.1c-2.4,0.4-4.3,2.5-4.3,5c-0.1,2.3,1.3,4.3,3.5,5l7.1,2.5c2.6,0.9,4.3,3.3,4.2,6
			C318.1,126,317.3,127.5,316.2,128.6z"/>
		
			<rect x="308.2" y="102.2" transform="matrix(2.522855e-02 -0.9997 0.9997 2.522855e-02 200.0463 410.5743)" class="st17" width="4.7" height="1.1"/>
		
			<rect x="307.4" y="131.7" transform="matrix(2.522855e-02 -0.9997 0.9997 2.522855e-02 169.8046 438.6095)" class="st17" width="4.7" height="1.1"/>
	</g>
	<g>
		<path class="st10" d="M315.4,128.6c-0.9,0.8-2,1.4-3.3,1.6c-2,0.3-4,0.3-6-0.2c-2.9-0.6-5-3.3-4.9-6.3l0-1.1l1.1,0l0,1.1
			c-0.1,2.5,1.7,4.7,4.1,5.2c1.9,0.4,3.7,0.4,5.6,0.1c2.4-0.4,4.3-2.5,4.3-5c0.1-2.3-1.3-4.3-3.5-5l-7.1-2.5c-2.6-0.9-4.3-3.3-4.2-6
			c0.1-3,2.3-5.5,5.2-6c2-0.3,4-0.3,6,0.2c2.9,0.6,5,3.3,4.9,6.3l0,1.1l-1.1,0l0-1.1c0.1-2.5-1.7-4.7-4.1-5.2
			c-1.9-0.4-3.7-0.4-5.6-0.1c-2.4,0.4-4.3,2.5-4.3,5c-0.1,2.3,1.3,4.3,3.5,5l7.1,2.5c2.6,0.9,4.3,3.3,4.2,6
			C317.3,125.9,316.6,127.5,315.4,128.6z"/>
		
			<rect x="307.4" y="102.1" transform="matrix(2.522855e-02 -0.9997 0.9997 2.522855e-02 199.3184 409.7892)" class="st10" width="4.7" height="1.1"/>
		
			<rect x="306.7" y="131.7" transform="matrix(2.522855e-02 -0.9997 0.9997 2.522855e-02 169.0767 437.8242)" class="st10" width="4.7" height="1.1"/>
	</g>
</g>
</svg>
